<svg xmlns="http://www.w3.org/2000/svg" xmlns:xlink="http://www.w3.org/1999/xlink" viewBox="0 0 1800 800"><defs><style>.cls-1{isolation:isolate;}.cls-2{fill:url(#linear-gradient);}.cls-3{fill:url(#linear-gradient-2);}.cls-4{fill:url(#linear-gradient-3);}.cls-5{fill:url(#linear-gradient-4);}.cls-6{fill:#fff;}.cls-7{fill:url(#linear-gradient-5);}.cls-8{fill:#9ff4d5;}.cls-9{fill:#94aded;}.cls-10,.cls-11,.cls-12,.cls-13,.cls-15,.cls-16,.cls-18,.cls-19,.cls-20,.cls-21,.cls-29,.cls-31,.cls-33,.cls-35,.cls-38,.cls-40,.cls-42,.cls-43,.cls-44,.cls-46,.cls-47,.cls-48,.cls-49,.cls-50,.cls-51,.cls-58,.cls-63,.cls-67,.cls-70,.cls-71,.cls-74,.cls-75,.cls-78,.cls-79,.cls-80,.cls-83,.cls-84,.cls-87,.cls-88,.cls-89,.cls-92,.cls-93,.cls-95,.cls-97{opacity:0.49;}.cls-10,.cls-11,.cls-12,.cls-13,.cls-15,.cls-16,.cls-18,.cls-19,.cls-20,.cls-21,.cls-31,.cls-33,.cls-35,.cls-38,.cls-40,.cls-42,.cls-43,.cls-44,.cls-46,.cls-47,.cls-48,.cls-49,.cls-50,.cls-51,.cls-53,.cls-67,.cls-70,.cls-71,.cls-74,.cls-75,.cls-78,.cls-79,.cls-80,.cls-83,.cls-84,.cls-87,.cls-88,.cls-89,.cls-92,.cls-93,.cls-95,.cls-97{mix-blend-mode:color-burn;}.cls-10{fill:url(#linear-gradient-6);}.cls-11{fill:url(#linear-gradient-7);}.cls-12{fill:url(#linear-gradient-8);}.cls-13{fill:url(#linear-gradient-9);}.cls-14{fill:#7c98d8;}.cls-15{fill:url(#linear-gradient-10);}.cls-16{fill:url(#linear-gradient-11);}.cls-17{fill:#f0f5fc;}.cls-18{fill:url(#linear-gradient-12);}.cls-19{fill:url(#linear-gradient-13);}.cls-20{fill:url(#linear-gradient-14);}.cls-21{fill:url(#linear-gradient-15);}.cls-22{fill:#490b0b;}.cls-23{fill:#bf352e;}.cls-24{fill:#db4337;}.cls-25{fill:#f4514a;}.cls-26{fill:#ff5a5a;}.cls-27{fill:#f4635b;}.cls-28{fill:#ff8d8a;}.cls-29,.cls-58,.cls-63{mix-blend-mode:multiply;}.cls-29{fill:url(#linear-gradient-16);}.cls-30{fill:#55a;}.cls-31{fill:url(#linear-gradient-17);}.cls-32{fill:#1b1c37;}.cls-33{fill:url(#linear-gradient-18);}.cls-34{fill:#f4b401;}.cls-35{fill:url(#linear-gradient-19);}.cls-36{fill:#ffb699;}.cls-37{fill:#f1dbd9;}.cls-38{fill:url(#linear-gradient-20);}.cls-39{fill:#e8d2d1;}.cls-40{fill:url(#linear-gradient-21);}.cls-41{fill:#69110d;}.cls-42{fill:url(#linear-gradient-22);}.cls-43{fill:url(#linear-gradient-23);}.cls-44{fill:url(#linear-gradient-24);}.cls-45{fill:#f9ebea;}.cls-46{fill:url(#linear-gradient-25);}.cls-47{fill:url(#linear-gradient-26);}.cls-48{fill:url(#linear-gradient-27);}.cls-49{fill:url(#linear-gradient-28);}.cls-50{fill:url(#linear-gradient-29);}.cls-51{fill:url(#linear-gradient-30);}.cls-52{fill:#ffce55;}.cls-53{opacity:0.27;fill:url(#linear-gradient-31);}.cls-54{fill:#457fdd;}.cls-55{fill:#4b8cea;}.cls-56{fill:#3d6fd3;}.cls-57{fill:#5996ef;}.cls-58{fill:url(#linear-gradient-32);}.cls-59{fill:#5de2ac;}.cls-60{fill:#64edb9;}.cls-61{fill:#39ce9c;}.cls-62{fill:#aeffda;}.cls-63{fill:url(#linear-gradient-33);}.cls-64{fill:#53e0ad;}.cls-65{fill:#e8d9b8;}.cls-66{fill:#d3c39b;}.cls-67{fill:url(#linear-gradient-34);}.cls-68{fill:#6d472e;}.cls-69{fill:#875635;}.cls-70{fill:url(#linear-gradient-35);}.cls-72{fill:url(#linear-gradient-36);}.cls-73{fill:url(#linear-gradient-37);}.cls-74{fill:url(#linear-gradient-38);}.cls-75{fill:url(#linear-gradient-39);}.cls-76{fill:url(#linear-gradient-40);}.cls-77{fill:#3e8c74;}.cls-78{fill:url(#linear-gradient-41);}.cls-79{fill:url(#linear-gradient-42);}.cls-80{fill:url(#linear-gradient-43);}.cls-81{fill:url(#linear-gradient-44);}.cls-82{fill:url(#linear-gradient-45);}.cls-83{fill:url(#linear-gradient-46);}.cls-84{fill:url(#linear-gradient-47);}.cls-85{fill:url(#linear-gradient-48);}.cls-86{fill:#dd4d4a;}.cls-87{fill:url(#linear-gradient-49);}.cls-88{fill:url(#linear-gradient-50);}.cls-89{fill:url(#linear-gradient-51);}.cls-90{fill:url(#linear-gradient-52);}.cls-91{fill:url(#linear-gradient-53);}.cls-92{fill:url(#linear-gradient-54);}.cls-93{fill:url(#linear-gradient-55);}.cls-94{fill:url(#linear-gradient-56);}.cls-95{fill:url(#linear-gradient-57);}.cls-96{fill:#b9b9c1;}.cls-97{fill:url(#linear-gradient-58);}.cls-98{fill:url(#linear-gradient-59);}</style><linearGradient id="linear-gradient" x1="1035.66" y1="454.94" x2="1035.66" y2="-148.26" gradientUnits="userSpaceOnUse"><stop offset="0.19" stop-color="#fff"/><stop offset="0.83" stop-color="#d1d3d4"/></linearGradient><linearGradient id="linear-gradient-2" x1="600.92" y1="430.94" x2="600.92" y2="-48.61" xlink:href="#linear-gradient"/><linearGradient id="linear-gradient-3" x1="577.92" y1="808.94" x2="577.92" y2="-167.16" xlink:href="#linear-gradient"/><linearGradient id="linear-gradient-4" x1="995.3" y1="838.94" x2="995.3" y2="60.14" xlink:href="#linear-gradient"/><linearGradient id="linear-gradient-5" x1="540.41" y1="433.23" x2="577.07" y2="693.23" gradientUnits="userSpaceOnUse"><stop offset="0.07" stop-color="#fff"/><stop offset="0.79" stop-color="#d1d3d4"/></linearGradient><linearGradient id="linear-gradient-6" x1="-33.53" y1="1587" x2="-42.82" y2="1564.05" gradientTransform="translate(587.42 -1112.5)" gradientUnits="userSpaceOnUse"><stop offset="0" stop-color="#fff" stop-opacity="0"/><stop offset="0.93"/></linearGradient><linearGradient id="linear-gradient-7" x1="-36.58" y1="1597.76" x2="-42.64" y2="1576.33" gradientTransform="translate(865.49 -1080.66) rotate(10.21)" xlink:href="#linear-gradient-6"/><linearGradient id="linear-gradient-8" x1="-8.61" y1="1587" x2="-17.91" y2="1564.05" gradientTransform="translate(587.02 -1108.08)" xlink:href="#linear-gradient-6"/><linearGradient id="linear-gradient-9" x1="-11.66" y1="1597.76" x2="-17.73" y2="1576.33" gradientTransform="translate(865.49 -1080.66) rotate(10.21)" xlink:href="#linear-gradient-6"/><linearGradient id="linear-gradient-10" x1="-14.7" y1="1541.39" x2="-32.71" y2="1499.3" gradientTransform="translate(865.49 -1080.66) rotate(10.21)" xlink:href="#linear-gradient-6"/><linearGradient id="linear-gradient-11" x1="12.19" y1="1511.78" x2="-49.07" y2="1497.18" gradientTransform="translate(865.49 -1080.66) rotate(10.21)" xlink:href="#linear-gradient-6"/><linearGradient id="linear-gradient-12" x1="-34.13" y1="1508.12" x2="-43.61" y2="1498.82" gradientTransform="matrix(0, 1, -1, 0, 2065.41, 431.18)" xlink:href="#linear-gradient-6"/><linearGradient id="linear-gradient-13" x1="-17.95" y1="1508.11" x2="-27.43" y2="1498.82" gradientTransform="translate(2081.34 417.87) rotate(90)" xlink:href="#linear-gradient-6"/><linearGradient id="linear-gradient-14" x1="-30.5" y1="1520.5" x2="-30.5" y2="1508.22" gradientTransform="translate(865.49 -1080.66) rotate(10.21)" xlink:href="#linear-gradient-6"/><linearGradient id="linear-gradient-15" x1="-19.59" y1="1488.18" x2="-34.79" y2="1472.98" gradientTransform="translate(865.49 -1080.66) rotate(10.21)" xlink:href="#linear-gradient-6"/><linearGradient id="linear-gradient-16" x1="1917.95" y1="-1066.74" x2="1917.95" y2="-1124.31" gradientTransform="translate(-987.15 2063.12) rotate(-16.89)" gradientUnits="userSpaceOnUse"><stop offset="0.02" stop-color="#fff" stop-opacity="0"/><stop offset="0.71"/></linearGradient><linearGradient id="linear-gradient-17" x1="3595.16" y1="-2166.64" x2="3659.32" y2="-2120.42" gradientTransform="translate(-1296.71 4271.91) rotate(-33.54)" gradientUnits="userSpaceOnUse"><stop offset="0.02" stop-color="#fff" stop-opacity="0"/><stop offset="0.96"/></linearGradient><linearGradient id="linear-gradient-18" x1="398.59" y1="519.89" x2="538.59" y2="431.89" gradientTransform="matrix(1, 0, 0, 1, 0, 0)" xlink:href="#linear-gradient-16"/><linearGradient id="linear-gradient-19" x1="300.62" y1="465.86" x2="410.87" y2="400.86" gradientUnits="userSpaceOnUse"><stop offset="0.02" stop-color="#fff" stop-opacity="0"/><stop offset="0.77"/></linearGradient><linearGradient id="linear-gradient-20" x1="153.46" y1="4503.36" x2="89.64" y2="4553.99" gradientTransform="matrix(0.76, 0.66, -0.66, 0.76, 3289.34, -3137.64)" gradientUnits="userSpaceOnUse"><stop offset="0.02" stop-color="#fff" stop-opacity="0"/><stop offset="0.4"/></linearGradient><linearGradient id="linear-gradient-21" x1="1791.54" y1="-1078.23" x2="1752.94" y2="-1189.4" gradientTransform="matrix(0.96, -0.29, 0.29, 0.96, -967.36, 2036.63)" xlink:href="#linear-gradient-16"/><linearGradient id="linear-gradient-22" x1="1803.6" y1="-1156.47" x2="1767.12" y2="-1144.14" gradientTransform="matrix(0.96, -0.29, 0.29, 0.96, -967.36, 2036.63)" gradientUnits="userSpaceOnUse"><stop offset="0.02" stop-color="#fff" stop-opacity="0"/><stop offset="0.54"/></linearGradient><linearGradient id="linear-gradient-23" x1="1799.31" y1="-1167.36" x2="1732.94" y2="-1187.38" xlink:href="#linear-gradient-22"/><linearGradient id="linear-gradient-24" x1="1689.66" y1="-1243.76" x2="1671.71" y2="-1293.42" gradientTransform="matrix(0.79, -0.62, 0.62, 0.79, -181.33, 2368.36)" xlink:href="#linear-gradient-22"/><linearGradient id="linear-gradient-25" x1="1665.26" y1="-1247.52" x2="1679.27" y2="-1253.56" gradientTransform="matrix(0.79, -0.62, 0.62, 0.79, -181.33, 2368.36)" gradientUnits="userSpaceOnUse"><stop offset="0.12" stop-color="#fff" stop-opacity="0"/><stop offset="0.85"/></linearGradient><linearGradient id="linear-gradient-26" x1="1660.48" y1="-1269.67" x2="1722.18" y2="-1272.42" gradientTransform="matrix(0.79, -0.62, 0.62, 0.79, -181.33, 2368.36)" xlink:href="#linear-gradient-22"/><linearGradient id="linear-gradient-27" x1="1682.48" y1="-1252.42" x2="1681.62" y2="-1262.83" gradientTransform="matrix(0.79, -0.62, 0.62, 0.79, -181.33, 2368.36)" gradientUnits="userSpaceOnUse"><stop offset="0.21" stop-color="#fff" stop-opacity="0"/><stop offset="0.9"/></linearGradient><linearGradient id="linear-gradient-28" x1="1702.41" y1="-1246.68" x2="1702.5" y2="-1256.79" gradientTransform="matrix(0.79, -0.62, 0.62, 0.79, -181.33, 2368.36)" xlink:href="#linear-gradient-22"/><linearGradient id="linear-gradient-29" x1="1670.72" y1="-1254.75" x2="1689.59" y2="-1259.62" gradientTransform="matrix(0.79, -0.62, 0.62, 0.79, -181.33, 2368.36)" xlink:href="#linear-gradient-22"/><linearGradient id="linear-gradient-30" x1="365.58" y1="376.94" x2="500.75" y2="414.71" gradientTransform="matrix(1, 0, 0, 1, 0, 0)" xlink:href="#linear-gradient-22"/><linearGradient id="linear-gradient-31" x1="3022.25" y1="-2458.31" x2="3022.25" y2="-2542.81" gradientTransform="translate(-776.67 4160.54) rotate(-31.4)" xlink:href="#linear-gradient-17"/><linearGradient id="linear-gradient-32" x1="-497.05" y1="2633.37" x2="-497.05" y2="2537.67" gradientTransform="translate(1742.49 -1834.35) rotate(18.76)" xlink:href="#linear-gradient-16"/><linearGradient id="linear-gradient-33" x1="480.85" y1="495.09" x2="480.85" y2="443.77" gradientTransform="matrix(1, 0, 0, 1, 0, 0)" xlink:href="#linear-gradient-16"/><linearGradient id="linear-gradient-34" x1="798.75" y1="296.22" x2="817.75" y2="471.72" gradientTransform="translate(28.01 -63.39) rotate(0.41)" gradientUnits="userSpaceOnUse"><stop offset="0.02" stop-color="#fff" stop-opacity="0"/><stop offset="0.96"/></linearGradient><linearGradient id="linear-gradient-35" x1="688.68" y1="494.19" x2="681.68" y2="555.19" gradientTransform="translate(28.01 -63.39) rotate(0.41)" gradientUnits="userSpaceOnUse"><stop offset="0.02" stop-color="#fff" stop-opacity="0"/><stop offset="0.89"/></linearGradient><linearGradient id="linear-gradient-36" x1="593.96" y1="821.03" x2="639.96" y2="709.29" gradientTransform="translate(232.19 -360.17) rotate(3)" xlink:href="#linear-gradient-35"/><linearGradient id="linear-gradient-37" x1="539.62" y1="798.66" x2="585.62" y2="686.92" gradientTransform="translate(232.19 -360.17) rotate(3)" xlink:href="#linear-gradient-35"/><linearGradient id="linear-gradient-38" x1="762.68" y1="456.64" x2="1031.16" y2="584.63" xlink:href="#linear-gradient-35"/><linearGradient id="linear-gradient-39" x1="810.27" y1="455.45" x2="829.02" y2="378.21" xlink:href="#linear-gradient-35"/><linearGradient id="linear-gradient-40" x1="688.06" y1="613.65" x2="752.05" y2="500.99" xlink:href="#linear-gradient-35"/><linearGradient id="linear-gradient-41" x1="636.11" y1="788.44" x2="648.84" y2="689.69" gradientTransform="translate(232.19 -360.17) rotate(3)" xlink:href="#linear-gradient-35"/><linearGradient id="linear-gradient-42" x1="1083.13" y1="243.05" x2="1102.13" y2="418.54" xlink:href="#linear-gradient-34"/><linearGradient id="linear-gradient-43" x1="973.06" y1="441.02" x2="966.06" y2="502.02" xlink:href="#linear-gradient-35"/><linearGradient id="linear-gradient-44" x1="875.65" y1="755.02" x2="921.65" y2="643.28" gradientTransform="translate(232.19 -360.17) rotate(3)" xlink:href="#linear-gradient-35"/><linearGradient id="linear-gradient-45" x1="821.31" y1="732.66" x2="867.31" y2="620.91" gradientTransform="translate(232.19 -360.17) rotate(3)" xlink:href="#linear-gradient-35"/><linearGradient id="linear-gradient-46" x1="1047.06" y1="403.46" x2="1315.54" y2="531.45" xlink:href="#linear-gradient-35"/><linearGradient id="linear-gradient-47" x1="1094.65" y1="402.28" x2="1113.4" y2="325.03" xlink:href="#linear-gradient-35"/><linearGradient id="linear-gradient-48" x1="972.44" y1="560.48" x2="1036.43" y2="447.82" xlink:href="#linear-gradient-35"/><linearGradient id="linear-gradient-49" x1="917.81" y1="722.43" x2="930.53" y2="623.69" gradientTransform="translate(232.19 -360.17) rotate(3)" xlink:href="#linear-gradient-35"/><linearGradient id="linear-gradient-50" x1="1367.51" y1="189.88" x2="1386.51" y2="365.37" xlink:href="#linear-gradient-34"/><linearGradient id="linear-gradient-51" x1="1257.44" y1="387.84" x2="1250.44" y2="448.84" xlink:href="#linear-gradient-35"/><linearGradient id="linear-gradient-52" x1="1157.35" y1="689.02" x2="1203.34" y2="577.27" gradientTransform="translate(232.19 -360.17) rotate(3)" xlink:href="#linear-gradient-35"/><linearGradient id="linear-gradient-53" x1="1103.01" y1="666.65" x2="1149" y2="554.9" gradientTransform="translate(232.19 -360.17) rotate(3)" xlink:href="#linear-gradient-35"/><linearGradient id="linear-gradient-54" x1="1331.44" y1="350.29" x2="1599.92" y2="478.28" xlink:href="#linear-gradient-35"/><linearGradient id="linear-gradient-55" x1="1379.03" y1="349.1" x2="1397.78" y2="271.86" xlink:href="#linear-gradient-35"/><linearGradient id="linear-gradient-56" x1="1256.82" y1="507.3" x2="1320.81" y2="394.64" xlink:href="#linear-gradient-35"/><linearGradient id="linear-gradient-57" x1="1199.5" y1="656.42" x2="1212.23" y2="557.68" gradientTransform="translate(232.19 -360.17) rotate(3)" xlink:href="#linear-gradient-35"/><linearGradient id="linear-gradient-58" x1="401.29" y1="558.51" x2="440.62" y2="370.51" xlink:href="#linear-gradient-19"/><linearGradient id="linear-gradient-59" x1="469.36" y1="411.46" x2="503.36" y2="595.46" xlink:href="#linear-gradient-5"/></defs><title>Santa flying over cities</title><g class="cls-1"><g id="Layer_1" data-name="Layer 1"><path class="cls-2" d="M446.8,242.71H554.92v59.07h33.39V192.94h132.9v54.42h74.23v27.85h102V214.43H1023.9v52.83h230.91V362.9l100.92,100.92V237a156,156,0,0,1,156-156H1539V403.2h90V656.94H442.32"/><polygon class="cls-3" points="979.36 670.94 979.36 602.81 852.76 602.81 852.76 524.99 755.08 524.99 755.08 322.25 641.43 322.25 641.43 555.98 536.19 555.98 536.19 640.94 451.19 640.94 451.19 161.6 283 161.6 283 484.59 247 484.59 247 410.1 171 410.1 171 706.94 1030.84 706.94 1030.84 670.94 979.36 670.94"/><path class="cls-4" d="M237,484.59H201V410.1H171V706.94H984.84v-36H933.37V602.81H806.77V525H709.08V372.84a50.59,50.59,0,0,0-50.59-50.59H641.43V556H536.19v85h-131V161.6H283v323H247"/><path class="cls-5" d="M735.79,652.1v-49.3H852.37v49.3h58.41V312.74a11,11,0,0,1,11-11h132.84a11,11,0,0,1,11,11V532.56h51.72V585h137.56V719.06h-519"/><rect class="cls-6" x="935" y="339.54" width="11.41" height="11.41"/><rect class="cls-6" x="958.64" y="339.54" width="11.41" height="11.41"/><rect class="cls-6" x="982.27" y="339.54" width="11.41" height="11.41"/><rect class="cls-6" x="1005.91" y="339.54" width="11.41" height="11.41"/><rect class="cls-6" x="1029.55" y="339.54" width="11.41" height="11.41"/><rect class="cls-6" x="935" y="362.81" width="11.41" height="11.41"/><rect class="cls-6" x="958.64" y="362.81" width="11.41" height="11.41"/><rect class="cls-6" x="982.27" y="362.81" width="11.41" height="11.41"/><rect class="cls-6" x="1005.91" y="362.81" width="11.41" height="11.41"/><rect class="cls-6" x="1029.55" y="362.81" width="11.41" height="11.41"/><rect class="cls-6" x="935" y="386.08" width="11.41" height="11.41"/><rect class="cls-6" x="958.64" y="386.08" width="11.41" height="11.41"/><rect class="cls-6" x="982.27" y="386.08" width="11.41" height="11.41"/><rect class="cls-6" x="1005.91" y="386.08" width="11.41" height="11.41"/><rect class="cls-6" x="1029.55" y="386.08" width="11.41" height="11.41"/><rect class="cls-6" x="935" y="409.36" width="11.41" height="11.41"/><rect class="cls-6" x="958.64" y="409.36" width="11.41" height="11.41"/><rect class="cls-6" x="982.27" y="409.36" width="11.41" height="11.41"/><rect class="cls-6" x="1005.91" y="409.36" width="11.41" height="11.41"/><rect class="cls-6" x="1029.55" y="409.36" width="11.41" height="11.41"/><rect class="cls-6" x="935" y="432.63" width="11.41" height="11.41"/><rect class="cls-6" x="958.64" y="432.63" width="11.41" height="11.41"/><rect class="cls-6" x="982.27" y="432.63" width="11.41" height="11.41"/><rect class="cls-6" x="1005.91" y="432.63" width="11.41" height="11.41"/><rect class="cls-6" x="1029.55" y="432.63" width="11.41" height="11.41"/><rect class="cls-6" x="935" y="455.91" width="11.41" height="11.41"/><rect class="cls-6" x="958.64" y="455.91" width="11.41" height="11.41"/><rect class="cls-6" x="982.27" y="455.91" width="11.41" height="11.41"/><rect class="cls-6" x="1005.91" y="455.91" width="11.41" height="11.41"/><rect class="cls-6" x="1029.55" y="455.91" width="11.41" height="11.41"/><rect class="cls-6" x="935" y="479.18" width="11.41" height="11.41"/><rect class="cls-6" x="958.64" y="479.18" width="11.41" height="11.41"/><rect class="cls-6" x="982.27" y="479.18" width="11.41" height="11.41"/><rect class="cls-6" x="1005.91" y="479.18" width="11.41" height="11.41"/><rect class="cls-6" x="1029.55" y="479.18" width="11.41" height="11.41"/><rect class="cls-6" x="935" y="502.45" width="11.41" height="11.41"/><rect class="cls-6" x="958.64" y="502.45" width="11.41" height="11.41"/><rect class="cls-6" x="982.27" y="502.45" width="11.41" height="11.41"/><rect class="cls-6" x="1005.91" y="502.45" width="11.41" height="11.41"/><rect class="cls-6" x="1029.55" y="502.45" width="11.41" height="11.41"/><rect class="cls-6" x="935" y="525.73" width="11.41" height="11.41"/><rect class="cls-6" x="958.64" y="525.73" width="11.41" height="11.41"/><rect class="cls-6" x="982.27" y="525.73" width="11.41" height="11.41"/><rect class="cls-6" x="1005.91" y="525.73" width="11.41" height="11.41"/><rect class="cls-6" x="1029.55" y="525.73" width="11.41" height="11.41"/><rect class="cls-6" x="935" y="549" width="11.41" height="11.41"/><rect class="cls-6" x="958.64" y="549" width="11.41" height="11.41"/><rect class="cls-6" x="982.27" y="549" width="11.41" height="11.41"/><rect class="cls-6" x="1005.91" y="549" width="11.41" height="11.41"/><rect class="cls-6" x="1029.55" y="549" width="11.41" height="11.41"/><path class="cls-7" d="M671.5,485.87a4.53,4.53,0,0,0-5.76,2.8l-8.11,23.46c-7,20.25-25.72,35.15-47.69,38h0a8,8,0,0,1-8.23-4.45l-5.35-11a4.53,4.53,0,1,0-8.14,4l1.63,3.36a8,8,0,0,1-6.2,11.47l-64.08,8.18a8,8,0,0,1-8.88-9.55l.74-3.66a4.53,4.53,0,1,0-8.87-1.79l-2.42,12a8,8,0,0,1-6.85,6.37l-1.34.17c-22.45,2.87-43.76-8.47-53-28.21l-1.63-3.48a4.53,4.53,0,0,0-8.2,3.85l1.63,3.48c10.94,23.31,36,36.71,62.36,33.34l10.25-1.31h0l98.75-12.61h0l8.92-1.14c25.35-3.24,47-20.5,55.1-44l8.11-23.46A4.53,4.53,0,0,0,671.5,485.87Z"/><path class="cls-8" d="M546.4,424.37S532.88,421,530.74,435c0,0,.73,1.64,5.16.61,0,0,.38-7.79,10.2-5.26"/><circle class="cls-9" cx="532.79" cy="437.35" r="4.2" transform="translate(7.96 884.23) rotate(-79.8)"/><rect class="cls-8" x="543.62" y="449.99" width="9.1" height="21.1" rx="0.76" ry="0.76" transform="translate(90.27 -89.83) rotate(10.2)"/><rect class="cls-10" x="543.62" y="449.99" width="9.1" height="21.1" rx="0.76" ry="0.76" transform="translate(90.27 -89.83) rotate(10.2)"/><rect class="cls-8" x="535.99" y="457.35" width="21.1" height="5.78" rx="0.76" ry="0.76" transform="translate(-3.25 916.6) rotate(-79.8)"/><path class="cls-9" d="M541.18,468.13h8.42a.76.76,0,0,1,.76.76v9a.76.76,0,0,1-.76.76h-15a.76.76,0,0,1-.76-.76v-2.42a7.32,7.32,0,0,1,7.32-7.32Z" transform="translate(92.44 -88.56) rotate(10.2)"/><path class="cls-9" d="M549.43,479.26l1.59-8.84a.76.76,0,0,0-.61-.88l-2-.36a7.35,7.35,0,0,0-8.51,5.91l-.43,2.38a.76.76,0,0,0,.61.88l8.46,1.52A.76.76,0,0,0,549.43,479.26Z"/><path class="cls-11" d="M549.43,479.26l1.59-8.84a.76.76,0,0,0-.61-.88l-2-.36a7.35,7.35,0,0,0-8.51,5.91l-.43,2.38a.76.76,0,0,0,.61.88l8.46,1.52A.76.76,0,0,0,549.43,479.26Z"/><rect class="cls-8" x="568.15" y="454.4" width="9.1" height="21.1" rx="0.76" ry="0.76" transform="translate(91.43 -94.11) rotate(10.2)"/><rect class="cls-12" x="568.15" y="454.4" width="9.1" height="21.1" rx="0.76" ry="0.76" transform="translate(91.43 -94.11) rotate(10.2)"/><rect class="cls-8" x="560.51" y="461.77" width="21.1" height="5.78" rx="0.76" ry="0.76" transform="translate(12.58 944.37) rotate(-79.8)"/><path class="cls-9" d="M565.7,472.54h8.42a.76.76,0,0,1,.76.76v9a.76.76,0,0,1-.76.76h-15a.76.76,0,0,1-.76-.76v-2.42a7.32,7.32,0,0,1,7.32-7.32Z" transform="translate(93.61 -92.83) rotate(10.2)"/><path class="cls-9" d="M574,483.68l1.59-8.84a.76.76,0,0,0-.61-.88l-2-.36a7.35,7.35,0,0,0-8.51,5.91l-.43,2.38a.76.76,0,0,0,.61.88l8.46,1.52A.76.76,0,0,0,574,483.68Z"/><path class="cls-13" d="M574,483.68l1.59-8.84a.76.76,0,0,0-.61-.88l-2-.36a7.35,7.35,0,0,0-8.51,5.91l-.43,2.38a.76.76,0,0,0,.61.88l8.46,1.52A.76.76,0,0,0,574,483.68Z"/><path class="cls-14" d="M587.38,432.94a9,9,0,0,0-7-10.44l-.1,0-3.49-.63a4.93,4.93,0,0,1-4-5.73l1.06-5.9-7.6-1.37-1.06,5.9a4.93,4.93,0,0,1-5.73,4l-3.49-.63-.1,0a9,9,0,0,0-10.23,7.34l-4.21,23.21a2.62,2.62,0,0,0,2.11,3l36.66,6.6a2.62,2.62,0,0,0,3-2.12Z"/><path class="cls-9" d="M580.63,455.7l4.15-23.22a9,9,0,0,0-7-10.44l-.1,0-.88-.16-2.61-.47a4.93,4.93,0,0,1-4-5.73l1.06-5.9-5-.9-1.06,5.9a4.93,4.93,0,0,1-5.73,4l-2.61-.47-.88-.16-.1,0a9,9,0,0,0-10.23,7.34l-4.21,23.21a2.62,2.62,0,0,0,2.11,3l34.05,6.13A2.62,2.62,0,0,0,580.63,455.7Z"/><path class="cls-15" d="M577.75,422l-.09,0-.89-.16h0l-2.61-.47a4.93,4.93,0,0,1-4-5.73l1.06-5.9-2.2-.4-3,.88,1.39,2a10.17,10.17,0,0,1,1.66,7.61l-.73,4.08a8.35,8.35,0,0,0,1.36,6.25,3.28,3.28,0,0,0,2.67,1.4,36.41,36.41,0,0,0,12.39-2.07A8.88,8.88,0,0,0,577.75,422Z"/><rect class="cls-9" x="550.39" y="382.67" width="43.86" height="28.46" rx="3.39" ry="3.39" transform="translate(79.37 -95.12) rotate(10.2)"/><path class="cls-9" d="M593.08,386.18l-7.28-1.31a3.4,3.4,0,0,1,2.74,3.94l-3.84,21.33a3.4,3.4,0,0,1-3.94,2.74l7.28,1.31a3.4,3.4,0,0,0,3.94-2.74l3.84-21.33A3.4,3.4,0,0,0,593.08,386.18Z"/><path class="cls-16" d="M593.08,386.18l-7.28-1.31a3.4,3.4,0,0,1,2.74,3.94l-3.84,21.33a3.4,3.4,0,0,1-3.94,2.74l7.28,1.31a3.4,3.4,0,0,0,3.94-2.74l3.84-21.33A3.4,3.4,0,0,0,593.08,386.18Z"/><circle class="cls-17" cx="560.82" cy="391.87" r="2.8" transform="translate(75.78 874.39) rotate(-79.79)"/><circle class="cls-18" cx="561.31" cy="392.86" r="2.8" transform="translate(75.22 875.7) rotate(-79.8)"/><circle class="cls-17" cx="576.74" cy="394.74" r="2.8" transform="translate(86.07 892.43) rotate(-79.8)"/><circle class="cls-19" cx="577.24" cy="395.73" r="2.8" transform="translate(85.51 893.73) rotate(-79.8)"/><rect class="cls-8" x="556.78" y="401.3" width="21.12" height="3.79" rx="0.76" ry="0.76" transform="translate(80.41 -94.14) rotate(10.2)"/><path class="cls-20" d="M558.19,401.55a.76.76,0,0,1,.88-.61l18.8,3.38.07-.37a.76.76,0,0,0-.61-.88L558,399.59a.76.76,0,0,0-.88.61l-.4,2.24a.76.76,0,0,0,.61.88l.5.09Z"/><circle class="cls-8" cx="576.73" cy="372.42" r="5.44" transform="translate(108.02 874.04) rotate(-79.8)"/><path class="cls-21" d="M572.91,373.27a5.43,5.43,0,1,0,6.32-4.39A5.41,5.41,0,0,0,572.91,373.27Z"/><rect class="cls-14" x="574.1" y="377.59" width="2.38" height="5.35" transform="translate(76.48 -95.91) rotate(10.21)"/><circle class="cls-8" cx="552.56" cy="423.96" r="0.93" transform="translate(37.4 892.67) rotate(-79.8)"/><rect class="cls-17" x="568.02" y="441" width="10.05" height="1.29" rx="0.61" ry="0.61" transform="translate(87.31 -94.54) rotate(10.2)"/><rect class="cls-17" x="567.39" y="444.5" width="10.05" height="1.29" rx="0.61" ry="0.61" transform="translate(87.92 -94.37) rotate(10.21)"/><rect class="cls-17" x="566.76" y="448" width="10.05" height="1.29" rx="0.61" ry="0.61" transform="translate(88.53 -94.2) rotate(10.2)"/><ellipse class="cls-8" cx="585.63" cy="434.48" rx="2.95" ry="0.91" transform="translate(54.27 933.86) rotate(-79.79)"/><path class="cls-8" d="M586.15,431.57s14.67,1.61,11.78,15.52c0,0-1.26,1.28-5-1.23,0,0,2.37-7.44-7.72-8.48"/><circle class="cls-9" cx="595.19" cy="448.59" r="4.2" transform="translate(48.25 954.89) rotate(-79.8)"/><path class="cls-22" d="M624.18,440h0l-32.44,4-5.42,32.82-82.69,10.61a28,28,0,0,1-27.13-12.62l-7.4-11.47A58.54,58.54,0,0,0,412.45,437l-43.56,5.59a11.15,11.15,0,0,0-7.95,17.09L396,514a68.24,68.24,0,0,0,66,30.71L596.3,527.5A45.76,45.76,0,0,0,635.54,490l5.65-32.25A15.3,15.3,0,0,0,624.18,440Z"/><path class="cls-23" d="M438.52,475.67s128.61-68.74,143,13L573.71,491l-20-12.94S468.05,527.37,419,466.39"/><path class="cls-24" d="M411.93,484.66s128.6-74.13,143,7.59l-7.82,2.37-20-12.94S441.44,531,392.43,470"/><rect class="cls-25" x="528.15" y="446.82" width="41.73" height="34.88" rx="0.67" ry="0.67" transform="translate(-111.22 179.57) rotate(-16.89)"/><path class="cls-26" d="M524.15,440.29h38.59a3.24,3.24,0,0,1,3.24,3.24v7.35a.66.66,0,0,1-.66.66H521.58a.66.66,0,0,1-.66-.66v-7.35a3.24,3.24,0,0,1,3.24-3.24Z" transform="translate(-106.13 177.16) rotate(-16.89)"/><rect class="cls-24" x="512.23" y="451.65" width="41.73" height="34.88" rx="0.67" ry="0.67" transform="translate(-113.31 175.15) rotate(-16.89)"/><rect class="cls-27" x="510.15" y="460.38" width="41.73" height="3.75" transform="translate(-111.41 174.25) rotate(-16.89)"/><rect class="cls-28" x="550.62" y="451.9" width="16.65" height="3.75" transform="translate(-107.74 182) rotate(-16.89)"/><rect class="cls-27" x="512.74" y="468.91" width="41.73" height="3.75" transform="translate(-113.78 175.37) rotate(-16.89)"/><rect class="cls-28" x="553.21" y="460.43" width="16.65" height="3.75" transform="translate(-110.11 183.12) rotate(-16.89)"/><rect class="cls-27" x="515.33" y="477.44" width="41.73" height="3.75" transform="translate(-116.14 176.49) rotate(-16.89)"/><rect class="cls-28" x="555.8" y="468.96" width="16.65" height="3.75" transform="translate(-112.48 184.24) rotate(-16.89)"/><path class="cls-29" d="M518.84,491.65a.67.67,0,0,1-.84-.45l-9.75-32.09a.67.67,0,0,1,.45-.84l40.42-8.2"/><path class="cls-24" d="M508.23,445.12h38.59a3.24,3.24,0,0,1,3.24,3.24v7.35a.66.66,0,0,1-.66.66H505.65a.66.66,0,0,1-.66-.66v-7.35a3.24,3.24,0,0,1,3.24-3.24Z" transform="translate(-108.22 172.74) rotate(-16.89)"/><path class="cls-30" d="M570.52,460.22A1.14,1.14,0,0,0,569,461c-.91,2.75-5.14,6.18-9.9,1.85-2.68-2.44-18.83-19.11-38.53-1.73s6.23,40.62,6.23,40.62l6.33-4.19s-2.77-5.3,3-9.52c6.21-4.53,12.81-1,12.81-1l6.33-4.19s-5-7.88,5.09-10c9.81-2.06,10.83-9.12,10.89-11.51a1.13,1.13,0,0,0-.71-1.08Z"/><path class="cls-31" d="M526.64,468.14c0-8.54,8.87-7.85,8.87-7.85-4.92-2-14.28,1.73-21.46,10.32-4.86,15.29,12.77,31.09,12.77,31.09l4-2.67c-.86-8,3.44-9.32,3.44-9.32h0a10.56,10.56,0,0,1,1.86-1.72,12.27,12.27,0,0,1,11.34-1.57c-1.95-.91-4.89-2.74-2.66-4.8a7.59,7.59,0,0,0,2-7.14C538,483,526.64,475.76,526.64,468.14Z"/><circle class="cls-32" cx="551.09" cy="466.24" r="1.11" transform="translate(-165.85 382.08) rotate(-33.54)"/><path class="cls-33" d="M491.62,457.11c-32.35,2.32-69.2,18.53-79.89,23.51l-.27,5.48c31.28,15.78,68.78,7.36,89.92.19-6.7,2.24-19,5.84-25.92,4.61-9.82-1.74,6.49-7.59-7.83-11.26C453.68,476.07,489.78,458,491.62,457.11Z"/><path class="cls-34" d="M326.88,381.17l-5.36,7.35a54.07,54.07,0,0,0-8,47.6h0a31.39,31.39,0,0,0,34,22.06l39-5-1.85-31.74"/><path class="cls-35" d="M347.52,458.17l39-5-1.85-31.74-27.35-19-8-3.14s4.63,29.42-8.87,29.42-20.62-5.22-18.67,8.75c1.88,13.49-3.35,8.33-3.71,8A31.34,31.34,0,0,0,347.52,458.17Z"/><path class="cls-36" d="M470.48,345.63l4.36-7.45a17.24,17.24,0,0,1,1.77-2.49l1.64-1.92a1.55,1.55,0,0,1,1.82-.41h0A1.54,1.54,0,0,1,481,335l-.41,2.41,5.89-3.4a3.24,3.24,0,0,1,4.47,1.25l1,1.82a7.71,7.71,0,0,1,.23,6.89h0a13.08,13.08,0,0,1-4.92,5.62l-7.61,4.79"/><path class="cls-37" d="M449.2,344.72l6-6.17a12.33,12.33,0,0,1,7.08-3.63l.26,0a12.23,12.23,0,0,1,10.19,3.24h0a30.31,30.31,0,0,1,9,17.21h0a14.56,14.56,0,0,1-1.92,9.81l-.84,1.4a12.35,12.35,0,0,1-4.25,4.23h0a12.31,12.31,0,0,1-5.57,1.72l-4.76.28"/><path class="cls-24" d="M411.95,344.51h0a56.29,56.29,0,0,0,42.84-3.66h0a9.79,9.79,0,0,1,12,2.42l1.21,1.45a23.75,23.75,0,0,1,5.29,12h0a15.34,15.34,0,0,1-8.91,16l-12.86,5.79a56.23,56.23,0,0,1-46.7-.22l-.73-.34"/><path class="cls-38" d="M446.63,350l6.67-7.68-2.33.33a56.31,56.31,0,0,1-28.69,4.11l-9.78,1.4,12,35.24a56.29,56.29,0,0,0,22.1-2.88l-3.36-7.42A21.64,21.64,0,0,1,446.63,350Z"/><path class="cls-24" d="M406.47,349.83S468,358,487.23,420l1.11,3.64c5.3,17.41-2.58,35.25-17.59,39.83l-53.28,16.27c-12.79,3.91-26.34-7.48-27.16-22.82l-1.12-21L361.45,365"/><path class="cls-39" d="M487.6,443.64l-34.34,10.48a.77.77,0,0,0-.51,1l3.64,12a.77.77,0,0,0,1,.51l34.35-10.49a7,7,0,0,0,4.66-8.74v0A7,7,0,0,0,487.6,443.64Z"/><path class="cls-24" d="M399.89,343.1s62.55,16.63,81.83,78.59l1.11,3.64c5.3,17.41-2.58,35.25-17.59,39.83l-53.28,16.27c-12.79,3.91-26.34-7.48-27.16-22.82h0A130.49,130.49,0,0,0,376,418l-20.08-51.33"/><path class="cls-39" d="M395.7,471.66c5.28,6.89,13.67,10.54,21.76,8.07l53.28-16.27c9.22-2.81,15.74-10.63,18.18-20.27Z"/><path class="cls-37" d="M481.71,421.69c-11.4-36.64-39.76-54.22-61-62.47,19,11.56,41.88,31.77,52.26,65.15L474,428l.06.2c3,9.94-1.72,20-10.27,22.66l-73.65,22.48a25,25,0,0,0,2.11,2.41l0,0q.52.52,1.06,1l.12.1a22.81,22.81,0,0,0,3.67,2.63l.2.11q.54.3,1.09.57l.25.12c.41.19.82.37,1.24.54l.07,0q.68.26,1.38.48l.18,0q.58.17,1.16.3l.37.08q.51.11,1,.18l.38.06q.62.08,1.24.12h.14c.46,0,.92,0,1.39,0l.38,0c.34,0,.68,0,1-.08l.47-.06,1-.16.43-.08c.46-.1.92-.22,1.37-.35h0l44.5-13.59,8.78-2.68c.53-.16,1-.34,1.56-.54l.47-.19c.35-.14.7-.29,1-.45l.51-.24,1-.51.45-.25q.6-.34,1.18-.72l.19-.12q.69-.45,1.35-1l.21-.17q.54-.42,1.06-.86l.31-.28q.47-.42.93-.87l.27-.27q.52-.52,1-1.08l.1-.11a28.12,28.12,0,0,0,2.11-2.72l.08-.12q.44-.66.85-1.34l.1-.16q.43-.73.82-1.48h0a31.7,31.7,0,0,0,2.06-5v0q.27-.87.5-1.76h0a36.53,36.53,0,0,0-.59-19.56Z"/><path class="cls-40" d="M427,431.42l-1.79-5.87-42.72,9h0a20.2,20.2,0,0,1,1.36,6.28l.95,17.76c.82,15.34,14.37,26.72,27.16,22.82l11.45-3.5,1.54-3.49C430.68,461.44,431.42,446,427,431.42Z"/><path class="cls-41" d="M383.1,423.4H486.86a2.86,2.86,0,0,1,2.86,2.86V428a2.86,2.86,0,0,1-2.86,2.86H380.53a1.67,1.67,0,0,1-1.67-1.67v-1.5a4.25,4.25,0,0,1,4.25-4.25Z" transform="translate(-105.79 145.42) rotate(-16.98)"/><path class="cls-36" d="M426.12,403.62l-3.42-5.19a3.71,3.71,0,0,0-3.77-1.62l-3.32.61a12.76,12.76,0,0,0-8.32,5.48l-3.32,5,9.29,10.76,2.78,0A8.54,8.54,0,0,0,422.9,415a9.4,9.4,0,0,0,.7-1.15l2.79-5.44A4.77,4.77,0,0,0,426.12,403.62Z"/><path class="cls-42" d="M414.19,399.88h0a1.75,1.75,0,0,0-2.53-1,12.7,12.7,0,0,0-4.37,4l-2.45,3.67,4,5.13,9.3,6.61a8.54,8.54,0,0,0,4.72-3.3,9.4,9.4,0,0,0,.7-1.15l2.74-5.34-9-4.83A6.43,6.43,0,0,1,414.19,399.88Z"/><path class="cls-43" d="M415.18,418.46a60,60,0,0,1,4.37-45.55l5.2-9.82h0l-29.57-5L362.38,374.6l-1.24,5,21.6,53.34,32.43-14.49Z"/><path class="cls-37" d="M396.07,405.32h0a5.73,5.73,0,0,1,5.31-3l2.47.11a21.35,21.35,0,0,1,13.6,5.69h0a17.74,17.74,0,0,1,5.63,14h0a14.58,14.58,0,0,1-6.29,11.17l-2.15,1.47a15,15,0,0,1-10.25,2.53l-.75-.09a6.85,6.85,0,0,1-5.47-4.08h0"/><path class="cls-36" d="M383.34,333.67a5.64,5.64,0,0,0-3.16-7.19L374.06,324a17,17,0,0,0-1.58-.64h0a17,17,0,0,0-17.39,3.86,17.08,17.08,0,1,0,28.06,7.05Z"/><path class="cls-44" d="M372.32,323.31l-22.42,16A17,17,0,0,0,374,355.06l4.81-7.17-1.77-2.26a25.08,25.08,0,0,1-5.18-18.41l.46-3.9Z"/><path class="cls-45" d="M355.68,344.64l-3.82,4,.8,2.24a8,8,0,0,0,7.05,5.27l4.54.25-1.84-5.12a10.89,10.89,0,0,0-6.74-6.64Z"/><path class="cls-46" d="M358.79,346.3l-3.9.79-.43,1a2.42,2.42,0,0,0,.32,2.45h0a4.3,4.3,0,0,0,4.22,1.57h0a4.06,4.06,0,0,1,2.87.5l1.34.8-.78-2.16A10.91,10.91,0,0,0,358.79,346.3Z"/><path class="cls-24" d="M363.61,369.95l-4.5-12a1.79,1.79,0,0,1,1.37-2.39l29-4.87L409,362.05Z"/><path class="cls-45" d="M388.65,337.69l-5.53-3.42-4,4.27a7.42,7.42,0,0,0-1.78,5.8,3.18,3.18,0,0,1-1.93,3.22,3.28,3.28,0,0,1-3.41-.64l-3.73-3.27a6,6,0,0,1-2-3.73,6,6,0,0,0-1.45-3.19L362.5,334l-5,6.92,11.7,9.8a4.71,4.71,0,0,1,1.61,3.33,4.49,4.49,0,0,0,1,2.46h0l0,.05.26.29a122.38,122.38,0,0,0,13.14,12.55c17.64,13.22,40.39-1.1,45.44-10,8.31-14.71-16.73-15.1-26.81-16.37A37.77,37.77,0,0,1,388.65,337.69Z"/><path class="cls-24" d="M366.82,319.81l-8.14-1.31a20.63,20.63,0,0,0-16.54,4.56h0A20.77,20.77,0,0,0,335,335.65l-3,18.55,1.63.65,6.56-8.41a4.43,4.43,0,0,1,6.89-.12l1.81,2.15"/><path class="cls-47" d="M347.91,331.13h0a7.21,7.21,0,0,1-6.62-2.7h0a2.33,2.33,0,0,0-3.87.32,20.71,20.71,0,0,0-2.44,6.91l-3,18.55,1.63.65,6.56-8.41a4.43,4.43,0,0,1,6.89-.12l1.81,2.15,7.62-12.16-1.95-2.48A7.21,7.21,0,0,0,347.91,331.13Z"/><path class="cls-37" d="M334.91,354.49a3.27,3.27,0,1,1-4.58-.55A3.28,3.28,0,0,1,334.91,354.49Z"/><path class="cls-48" d="M362.5,334l-5,6.92,2.65,2.22a74.47,74.47,0,0,1,4.6-6.6Z"/><path class="cls-49" d="M383.64,330.94l-2.51,2.57a.54.54,0,0,0,.44.92l1.54-.16.22-.59A5.61,5.61,0,0,0,383.64,330.94Z"/><path class="cls-37" d="M352.83,351.42l2.86-5.4a74.54,74.54,0,0,1,8.15-12.3l8.49-10.41a.67.67,0,0,0-.07-.92l-3.06-2.75a2.5,2.5,0,0,0-3.59.25l-7.58,9a56.49,56.49,0,0,0-8.58,13.82l-1.78,4.09a2.51,2.51,0,0,0,.87,3.06l2.77,1.92A1,1,0,0,0,352.83,351.42Z"/><path class="cls-36" d="M355.32,341.5h0a3.08,3.08,0,0,0-1.65,3.5l.09.37a3.09,3.09,0,0,0,1.8,2.12l2,.84a3.06,3.06,0,0,0,3.09-.42l2.65-2.1-4.67-3.91A3.06,3.06,0,0,0,355.32,341.5Z"/><path class="cls-50" d="M356.36,342.93h0a1.76,1.76,0,0,0-.94,2l.05.21a1.76,1.76,0,0,0,1,1.21l1.13.48a1.74,1.74,0,0,0,1.76-.24l.19-.15a1.37,1.37,0,0,0,0-2.13l-1.37-1.14A1.75,1.75,0,0,0,356.36,342.93Z"/><path class="cls-45" d="M373.1,328a3.68,3.68,0,0,1-1.66,3.31,3.89,3.89,0,0,0-1.37,1.74,3.38,3.38,0,0,1-2.85,2.06l-.45,0a1.87,1.87,0,0,1-2-2.19,9.08,9.08,0,0,1,5.78-7,1.86,1.86,0,0,1,2.5,1.57Z"/><path class="cls-24" d="M359,361.09h0a15.29,15.29,0,0,1,16.55,2.06h0a22.85,22.85,0,0,1,8,19.88l-.29,2.7a16.6,16.6,0,0,0,15,18.3h0a15,15,0,0,1,9.26,4.35l1.3,1.3a15.11,15.11,0,0,1,4.13,13.54h0a15,15,0,0,1-15.13,12.16l-10.47-.3a39.4,39.4,0,0,1-38.09-41.89l1.2-19.24A15.36,15.36,0,0,1,359,361.09Z"/><path class="cls-34" d="M407.65,402.22l-14.52-8.62a66.84,66.84,0,0,0-23.46-8.51l-5.71-.92a12.57,12.57,0,0,0-8.41,1.59h0a12.65,12.65,0,0,0-6.19,10.69l-.07,4.52-22.41-19.79,5.75-7.11a42.2,42.2,0,0,1,32-15.68h.17a41.25,41.25,0,0,1,34.55,17.56,125.85,125.85,0,0,0,16.1,18.4l2.52,2.41-8.72,3.93Z"/><path class="cls-51" d="M415.43,394.34a125.84,125.84,0,0,1-16.1-18.4,41.29,41.29,0,0,0-2.62-3.33,3.37,3.37,0,0,0-5.71,3,11.33,11.33,0,0,1-7.76,13.12v0q1.25.49,2.48,1l.18.08c.76.33,1.51.68,2.26,1l.75.38c.57.29,1.14.57,1.71.87q1.27.68,2.51,1.41l14.52,8.62,1.58-1.53,8.72-3.93Z"/><path class="cls-34" d="M472.74,409h7.46a4.45,4.45,0,0,1,4.45,4.45v2.32a4.45,4.45,0,0,1-4.45,4.45h-9.75a4.45,4.45,0,0,1-4.45-4.45v0a6.74,6.74,0,0,1,6.74-6.74Z" transform="translate(-100.34 156.85) rotate(-16.98)"/><path class="cls-37" d="M394.45,486.76l34.34-10.48a.77.77,0,0,0,.51-1l-3.64-12a.77.77,0,0,0-1-.51l-34.35,10.49a7,7,0,0,0-4.66,8.74v0A7,7,0,0,0,394.45,486.76Z"/><circle class="cls-34" cx="498.02" cy="448.42" r="22.67" transform="translate(-160.7 325.17) rotate(-31.4)"/><ellipse class="cls-52" cx="498.02" cy="448.42" rx="11.34" ry="22.67" transform="translate(-160.7 325.17) rotate(-31.4)"/><path class="cls-53" d="M489,433.6a21.54,21.54,0,0,0-4.9,32.7,22.67,22.67,0,0,0,36.22-22.11A21.54,21.54,0,0,0,489,433.6Z"/><rect class="cls-54" x="429.17" y="448.95" width="38.59" height="58" rx="0.62" ry="0.62" transform="translate(177.54 -118.84) rotate(18.76)"/><path class="cls-55" d="M440.46,443.78h35.68a3,3,0,0,1,3,3v6.8a.61.61,0,0,1-.61.61H438.08a.61.61,0,0,1-.61-.61v-6.8A3,3,0,0,1,440.46,443.78Z" transform="translate(168.74 -123.54) rotate(18.76)"/><rect class="cls-56" x="414.59" y="444" width="38.59" height="58" rx="0.62" ry="0.62" transform="translate(175.17 -114.41) rotate(18.76)"/><rect class="cls-54" x="418.81" y="443.13" width="3.17" height="54.4" transform="translate(173.6 -110.22) rotate(18.76)"/><rect class="cls-57" x="454.85" y="455.37" width="3.17" height="54.4" transform="translate(179.45 -121.16) rotate(18.76)"/><rect class="cls-57" x="460.8" y="457.39" width="3.17" height="54.4" transform="translate(180.41 -122.96) rotate(18.76)"/><rect class="cls-54" x="424.73" y="445.16" width="3.3" height="54.4" transform="translate(174.55 -112.03) rotate(18.76)"/><rect class="cls-54" x="431.24" y="447.37" width="3.3" height="54.4" transform="translate(175.61 -114) rotate(18.76)"/><rect class="cls-54" x="437.74" y="449.58" width="3.3" height="54.4" transform="translate(176.69 -115.99) rotate(18.76)"/><rect class="cls-54" x="444.25" y="451.79" width="3.3" height="54.4" transform="translate(177.73 -117.95) rotate(18.76)"/><path class="cls-58" d="M406.17,494.22a.64.64,0,0,1-.41-.8L424,439.68a.64.64,0,0,1,.81-.38l36.23,16.11"/><path class="cls-56" d="M425.89,438.83h35.68a3,3,0,0,1,3,3v6.8a.61.61,0,0,1-.61.61H423.5a.61.61,0,0,1-.61-.61v-6.8A3,3,0,0,1,425.89,438.83Z" transform="translate(166.38 -119.12) rotate(18.76)"/><rect class="cls-59" x="477.09" y="464.62" width="37.2" height="31.1" rx="0.6" ry="0.6"/><path class="cls-60" d="M478.49,458.06h34.41a2.89,2.89,0,0,1,2.89,2.89v6.56a.59.59,0,0,1-.59.59h-39a.59.59,0,0,1-.59-.59v-6.56A2.89,2.89,0,0,1,478.49,458.06Z"/><rect class="cls-61" x="462.25" y="464.62" width="37.2" height="31.1" rx="0.6" ry="0.6"/><rect class="cls-62" x="477.18" y="468.12" width="7.33" height="27.61"/><path class="cls-63" d="M462.85,495.73a.6.6,0,0,1-.6-.6V465.22a.6.6,0,0,1,.6-.6l36.61,3.47"/><path class="cls-64" d="M463.65,458.06h34.41a2.89,2.89,0,0,1,2.89,2.89v6.56a.59.59,0,0,1-.59.59h-39a.59.59,0,0,1-.59-.59v-6.56A2.89,2.89,0,0,1,463.65,458.06Z"/><rect class="cls-62" x="475.6" y="458.06" width="7.33" height="10.04"/><path class="cls-41" d="M436.45,467.39l7.4,11.47A28,28,0,0,0,471,491.48l83.16-10.67a28,28,0,0,0,24-23l.23-1.3A15.3,15.3,0,0,1,591.53,444h0a15.3,15.3,0,0,1,17,17.81l-5.65,32.25a45.76,45.76,0,0,1-39.25,37.49L429.37,548.8a68.24,68.24,0,0,1-66-30.71l-35-54.36a11.15,11.15,0,0,1,7.95-17.09L379.8,441A58.54,58.54,0,0,1,436.45,467.39Z"/><path class="cls-65" d="M875.87,369.57s9.41-32.18-13.15-53.91c-27.7-26.68,2.58-52-2.17-51.75-7.95.35-24.26,26.32-15.63,43.23,0,0-21.76-11.14-24-19.37s-11.75,1.51,1.31,12.29,9.13,10.5,7.16,12.77,3.81,1.69,9.76,2.32,26.79,12.29,21.87,30.26c-3.93,14.38-4.18,10.45-2.22,13S875.87,369.57,875.87,369.57Z"/><path class="cls-66" d="M862.74,370.57s9.63-32.92-13.46-55.15c-28.34-27.29,2.64-53.16-2.22-52.95-8.13.36-24.82,26.93-16,44.22,0,0-22.26-11.39-24.52-19.82s-12,1.54,1.34,12.57,9.34,10.75,7.33,13.07,3.9,1.73,10,2.38,27.4,12.57,22.37,31c-4,14.71-4.27,10.69-2.27,13.29S862.74,370.57,862.74,370.57Z"/><path class="cls-67" d="M862.74,370.57s9.63-32.92-13.46-55.15c-28.34-27.29,2.64-53.16-2.22-52.95-8.13.36-24.82,26.93-16,44.22,0,0-22.26-11.39-24.52-19.82s-12,1.54,1.34,12.57,9.34,10.75,7.33,13.07,3.9,1.73,10,2.38,27.4,12.57,22.37,31c-4,14.71-4.27,10.69-2.27,13.29S862.74,370.57,862.74,370.57Z"/><path class="cls-68" d="M780.77,492.73C775,499.33,746,531.59,737.93,535l-22.08,9.35a34.19,34.19,0,0,0-18.8,19.8l-6.18,17a23.17,23.17,0,0,1-8,10.72l-13.67,10.08a4.36,4.36,0,0,1-6.92-3l-.5-4.14a13.71,13.71,0,0,1,6.39-13.3l8.46-5.24a10.85,10.85,0,0,0,4.9-7l3.55-16.71a31.42,31.42,0,0,1,8.64-15.82l26.14-25.85"/><path class="cls-68" d="M844.82,474.93a11,11,0,0,0,10,11.87l14.92,1.27a8,8,0,0,1,6.21,3.93h0a11.76,11.76,0,0,1-1,13.22l-13.93,17.53a15.2,15.2,0,0,1-7.1,5l-14.15,4.7a2.55,2.55,0,0,1-3.35-2.58l.17-2.7a3.61,3.61,0,0,1,2.53-3.22L847,521.5a8.41,8.41,0,0,0,5.41-5.14l2.9-7.91a2.35,2.35,0,0,0-2.18-3.16L827.19,505"/><path class="cls-69" d="M743.34,443.37l-22.09,2.87a37.57,37.57,0,0,1-19-2.34,32.18,32.18,0,0,0-10-2.31h0a26.77,26.77,0,0,1-11.92-3.69l-3.52-2.09a2.26,2.26,0,0,0-3.34,2.5l.17.68a33.24,33.24,0,0,0,24.24,24l14.07,3.47"/><path class="cls-70" d="M732.1,444.83c-9.53,1.32-26.87,7.26-31.91,12.72-4.83,5.23-15.76-1.6-16.67-2.18A33.2,33.2,0,0,0,697.84,463l14.07,3.47,27.23-20A12.27,12.27,0,0,0,732.1,444.83Z"/><path class="cls-69" d="M842,348.12l11.35,5.12a28.63,28.63,0,0,0,7,2.14l9.64,1.61a32.94,32.94,0,0,1,9.09,2.92l19.26,9.46a6.46,6.46,0,0,1,3,8.58l-1.19,2.5a16.69,16.69,0,0,1-13.07,9.4L877.93,391a9.08,9.08,0,0,0-7.82,7.25l-3.66,18.5a106.37,106.37,0,0,0-1.25,33.45l1.06,8.79a14.23,14.23,0,0,0,15.84,12.42L901.36,469a10.31,10.31,0,0,1,8.91,3.35h0a15.24,15.24,0,0,1,2.27,17l-13,25.92a19.7,19.7,0,0,1-7.7,8.18l-16.71,9.71a3.3,3.3,0,0,1-4.93-2.39l-.5-3.47a4.68,4.68,0,0,1,2.36-4.75l9.28-5.14a10.9,10.9,0,0,0,5.5-8l1.59-10.8a3,3,0,0,0-3.6-3.44l-33,6.42a304.84,304.84,0,0,1-60.36,5.61L765,507.14a39.92,39.92,0,0,0-30.37,13.69h0a57.7,57.7,0,0,1-21,15.22L680.21,550.2a34.19,34.19,0,0,0-18.8,19.8l-6.18,17a23.17,23.17,0,0,1-8,10.72L633.54,607.8a4.36,4.36,0,0,1-6.92-3l-.5-4.14a13.71,13.71,0,0,1,6.39-13.3l8.46-5.24a10.85,10.85,0,0,0,4.9-7l3.55-16.71a31.42,31.42,0,0,1,8.64-15.82l26.14-25.85a21.3,21.3,0,0,0,6.32-15.43l-.07-5a43.07,43.07,0,0,1,11.69-30.08l3.14-3.34a64.1,64.1,0,0,1,47.08-20.19l22.06.13a39.21,39.21,0,0,0,34.75-20.62l31.09-57.73-2.27,0a13.5,13.5,0,0,1-11.27-6.35l-5.38-8.63a2.81,2.81,0,0,1,2-4.27h0A35.12,35.12,0,0,1,842,348.12Z"/><g class="cls-71"><path class="cls-72" d="M774.42,442.91l-19.34-.11c7.57.87,17.74,4.34,40.13,12.45,41.25,14.93,55.23-2.63,55.23-2.63L802.73,431A39.21,39.21,0,0,1,774.42,442.91Z"/><path class="cls-73" d="M735.79,444.86c2.76-.56,5.1-1.06,7.23-1.44A64.1,64.1,0,0,0,735.79,444.86Z"/></g><path class="cls-74" d="M866.26,459l-1.06-8.79a106.38,106.38,0,0,1,1.25-33.45l3.66-18.5a9.08,9.08,0,0,1,7.82-7.25l1.72-.21s-25.25-.61-26.64,21.13,1.87,54.76-8.65,57.19c-9.47,2.18-6.32,11.34,4,8.48a104.28,104.28,0,0,1,11.63-2.68l22.15-3.51A14.23,14.23,0,0,1,866.26,459Z"/><path class="cls-75" d="M840.26,364.56l-14.07,26.13h0c8.38-15.56,24.32-12.57,26.37-20.31S840.26,364.56,840.26,364.56Z"/><circle class="cls-32" cx="869.33" cy="366.53" r="1.99" transform="translate(496.6 1233.21) rotate(-89.59)"/><g class="cls-71"><path class="cls-76" d="M770.26,507.18c-8.18-.3-19.66-1.26-28.65-4.15-15.71-5-20.11,14.67-25.18,25.14s-31.14,19.33-31.14,19.33l.68.27,27.66-11.71a57.7,57.7,0,0,0,21-15.22h0A39.92,39.92,0,0,1,765,507.14Z"/></g><path class="cls-77" d="M821.25,399.86s-1.32,6.19,8.9,8.56,36.12,9.18,37.74,1c0,0,5.28-.25,4,4.78s-2.9,18.8-1.14,24.06-14.6,22.62-50.21,11.07-23.17-17.84-17.28-25.09,13.59-32.79,19.74-27.67Z"/><path class="cls-78" d="M830.15,408.42c-10.22-2.37-8.9-8.56-8.9-8.56l1.77-3.29c-6.15-5.12-13.85,20.43-19.74,27.67S785,437.78,820.56,449.33c11.4,3.7,20.81,4.42,28.3,3.54l4.39-.74c.5-.11,1-.22,1.46-.35,5-1.67,7.81-8-3.75-10.73-12.53-3-6.34-9.51,7.68-12.78s9.24-18.86,9.24-18.86C866.27,417.6,840.37,410.79,830.15,408.42Z"/><path class="cls-65" d="M1160.63,318.42s9.41-32.18-13.15-53.91c-27.7-26.68,2.58-52-2.17-51.75-7.95.35-24.26,26.32-15.63,43.23,0,0-21.76-11.14-24-19.37S1094,238.12,1107,248.9s9.13,10.5,7.16,12.77,3.81,1.69,9.76,2.32,26.79,12.29,21.87,30.26c-3.93,14.38-4.18,10.45-2.22,13S1160.63,318.42,1160.63,318.42Z"/><path class="cls-66" d="M1147.5,319.42s9.63-32.92-13.46-55.15c-28.34-27.29,2.64-53.16-2.22-52.95-8.13.36-24.82,26.93-16,44.22,0,0-22.26-11.39-24.52-19.82s-12,1.55,1.34,12.57S1102,259,1100,261.36s3.9,1.73,10,2.38,27.4,12.57,22.37,31c-4,14.71-4.27,10.69-2.27,13.29S1147.5,319.42,1147.5,319.42Z"/><path class="cls-79" d="M1147.5,319.42s9.63-32.92-13.46-55.15c-28.34-27.29,2.64-53.16-2.22-52.95-8.13.36-24.82,26.93-16,44.22,0,0-22.26-11.39-24.52-19.82s-12,1.55,1.34,12.57S1102,259,1100,261.36s3.9,1.73,10,2.38,27.4,12.57,22.37,31c-4,14.71-4.27,10.69-2.27,13.29S1147.5,319.42,1147.5,319.42Z"/><path class="cls-68" d="M1065.53,441.57c-5.76,6.6-34.77,38.86-42.84,42.28l-22.08,9.35A34.19,34.19,0,0,0,981.8,513l-6.18,17a23.17,23.17,0,0,1-8,10.72l-13.67,10.08a4.36,4.36,0,0,1-6.92-3l-.5-4.14a13.71,13.71,0,0,1,6.39-13.3l8.46-5.24a10.85,10.85,0,0,0,4.9-7l3.55-16.71a31.42,31.42,0,0,1,8.64-15.82l26.14-25.85"/><path class="cls-68" d="M1129.58,423.78a11,11,0,0,0,10,11.87l14.92,1.27a8,8,0,0,1,6.21,3.93h0a11.76,11.76,0,0,1-1,13.22l-13.93,17.53a15.2,15.2,0,0,1-7.1,5l-14.15,4.7a2.55,2.55,0,0,1-3.35-2.58l.17-2.7a3.61,3.61,0,0,1,2.53-3.22l7.82-2.42a8.41,8.41,0,0,0,5.41-5.14l2.9-7.91a2.35,2.35,0,0,0-2.18-3.16L1112,453.8"/><path class="cls-69" d="M1028.09,392.21,1006,395.08a37.57,37.57,0,0,1-19-2.34,32.18,32.18,0,0,0-10-2.31h0A26.77,26.77,0,0,1,965,386.74l-3.52-2.09a2.26,2.26,0,0,0-3.34,2.5l.17.68a33.24,33.24,0,0,0,24.24,24l14.07,3.47"/><path class="cls-80" d="M1016.85,393.67c-9.53,1.32-26.87,7.26-31.91,12.72-4.83,5.23-15.76-1.6-16.67-2.18a33.2,33.2,0,0,0,14.32,7.62l14.07,3.47,27.23-20A12.27,12.27,0,0,0,1016.85,393.67Z"/><path class="cls-69" d="M1126.78,297l11.35,5.12a28.63,28.63,0,0,0,7,2.14l9.64,1.61a32.94,32.94,0,0,1,9.09,2.92l19.26,9.46a6.46,6.46,0,0,1,3,8.58l-1.19,2.5a16.69,16.69,0,0,1-13.07,9.4l-9.21,1.12a9.08,9.08,0,0,0-7.82,7.25l-3.66,18.5A106.37,106.37,0,0,0,1150,399l1.06,8.79a14.23,14.23,0,0,0,15.84,12.42l19.26-2.33a10.31,10.31,0,0,1,8.91,3.35h0a15.24,15.24,0,0,1,2.27,17l-13,25.92a19.7,19.7,0,0,1-7.7,8.18l-16.71,9.71a3.3,3.3,0,0,1-4.93-2.39l-.5-3.47a4.68,4.68,0,0,1,2.36-4.75l9.28-5.14a10.9,10.9,0,0,0,5.5-8l1.59-10.8a3,3,0,0,0-3.6-3.44l-33,6.42a304.84,304.84,0,0,1-60.36,5.61l-26.46-.18a39.92,39.92,0,0,0-30.37,13.69h0a57.7,57.7,0,0,1-21,15.22L965,499a34.19,34.19,0,0,0-18.8,19.8l-6.18,17a23.17,23.17,0,0,1-8,10.72l-13.67,10.08a4.36,4.36,0,0,1-6.92-3l-.5-4.14a13.71,13.71,0,0,1,6.39-13.3l8.46-5.24a10.85,10.85,0,0,0,4.9-7l3.55-16.71a31.42,31.42,0,0,1,8.64-15.82L969,465.63a21.3,21.3,0,0,0,6.32-15.43l-.07-5a43.07,43.07,0,0,1,11.69-30.08l3.14-3.34a64.1,64.1,0,0,1,47.08-20.19l22.06.13a39.21,39.21,0,0,0,34.75-20.62L1125,313.41l-2.27,0a13.5,13.5,0,0,1-11.27-6.35l-5.38-8.63a2.81,2.81,0,0,1,2-4.27h0A35.12,35.12,0,0,1,1126.78,297Z"/><g class="cls-71"><path class="cls-81" d="M1059.17,391.75l-19.34-.11c7.57.87,17.74,4.34,40.13,12.45,41.25,14.93,55.23-2.63,55.23-2.63l-47.7-21.55A39.21,39.21,0,0,1,1059.17,391.75Z"/><path class="cls-82" d="M1020.55,393.7c2.76-.56,5.1-1.06,7.23-1.44A64.12,64.12,0,0,0,1020.55,393.7Z"/></g><path class="cls-83" d="M1151,407.8,1150,399a106.37,106.37,0,0,1,1.25-33.45l3.66-18.5a9.08,9.08,0,0,1,7.82-7.25l1.72-.21s-25.25-.61-26.64,21.13,1.87,54.76-8.65,57.19c-9.47,2.18-6.32,11.34,4,8.48a104.29,104.29,0,0,1,11.63-2.68l22.15-3.51A14.23,14.23,0,0,1,1151,407.8Z"/><path class="cls-84" d="M1125,313.41l-14.07,26.13h0c8.38-15.56,24.32-12.57,26.37-20.31S1125,313.41,1125,313.41Z"/><circle class="cls-32" cx="1154.09" cy="315.37" r="1.99" transform="translate(830.5 1467.18) rotate(-89.59)"/><g class="cls-71"><path class="cls-85" d="M1055,456c-8.18-.3-19.66-1.26-28.65-4.15-15.71-5-20.11,14.67-25.18,25.14s-31.14,19.33-31.14,19.33l.68.27,27.66-11.71a57.7,57.7,0,0,0,21-15.22h0A39.92,39.92,0,0,1,1049.76,456Z"/></g><path class="cls-86" d="M1106,348.71s-1.32,6.19,8.9,8.56,36.12,9.18,37.74,1c0,0,5.28-.25,4,4.78s-2.9,18.8-1.14,24.06-14.6,22.62-50.21,11.07-23.17-17.84-17.28-25.09,13.59-32.79,19.74-27.67Z"/><path class="cls-87" d="M1114.91,357.27c-10.22-2.37-8.9-8.56-8.9-8.56l1.77-3.29c-6.15-5.12-13.85,20.43-19.74,27.67s-18.33,13.54,17.28,25.09c11.4,3.7,20.81,4.42,28.3,3.54L1138,401c.5-.11,1-.22,1.46-.35,5-1.67,7.81-8-3.75-10.73-12.53-3-6.34-9.51,7.68-12.78s9.24-18.86,9.24-18.86C1151,366.44,1125.13,359.64,1114.91,357.27Z"/><path class="cls-65" d="M1445.39,267.26s9.41-32.18-13.15-53.91c-27.7-26.68,2.58-52-2.17-51.75-7.95.35-24.26,26.32-15.63,43.23,0,0-21.76-11.14-24-19.37s-11.75,1.51,1.31,12.29,9.13,10.5,7.16,12.77,3.81,1.69,9.76,2.32,26.79,12.29,21.87,30.26c-3.93,14.38-4.18,10.45-2.22,13S1445.39,267.26,1445.39,267.26Z"/><path class="cls-66" d="M1432.25,268.26s9.63-32.92-13.46-55.15c-28.34-27.29,2.64-53.16-2.22-52.95-8.13.36-24.82,26.93-16,44.22,0,0-22.26-11.39-24.52-19.82s-12,1.55,1.34,12.57,9.34,10.75,7.33,13.07,3.9,1.73,10,2.38,27.4,12.57,22.37,31c-4,14.71-4.27,10.69-2.27,13.29S1432.25,268.26,1432.25,268.26Z"/><path class="cls-88" d="M1432.25,268.26s9.63-32.92-13.46-55.15c-28.34-27.29,2.64-53.16-2.22-52.95-8.13.36-24.82,26.93-16,44.22,0,0-22.26-11.39-24.52-19.82s-12,1.55,1.34,12.57,9.34,10.75,7.33,13.07,3.9,1.73,10,2.38,27.4,12.57,22.37,31c-4,14.71-4.27,10.69-2.27,13.29S1432.25,268.26,1432.25,268.26Z"/><path class="cls-68" d="M1350.29,390.42c-5.76,6.6-34.77,38.86-42.84,42.28L1285.36,442a34.19,34.19,0,0,0-18.8,19.8l-6.18,17a23.17,23.17,0,0,1-8,10.72l-13.67,10.09a4.36,4.36,0,0,1-6.92-3l-.5-4.14a13.71,13.71,0,0,1,6.39-13.3l8.46-5.24a10.85,10.85,0,0,0,4.9-7l3.55-16.71a31.42,31.42,0,0,1,8.64-15.82l26.14-25.85"/><path class="cls-68" d="M1414.34,372.62a11,11,0,0,0,10,11.87l14.92,1.27a8,8,0,0,1,6.21,3.93h0a11.76,11.76,0,0,1-1,13.22l-13.93,17.53a15.2,15.2,0,0,1-7.1,5l-14.15,4.7a2.55,2.55,0,0,1-3.35-2.58l.17-2.7a3.61,3.61,0,0,1,2.53-3.22l7.82-2.42a8.41,8.41,0,0,0,5.41-5.14l2.9-7.91a2.35,2.35,0,0,0-2.18-3.16l-25.92-.34"/><path class="cls-69" d="M1312.85,341.06l-22.09,2.87a37.57,37.57,0,0,1-19-2.34,32.18,32.18,0,0,0-10-2.31h0a26.77,26.77,0,0,1-11.92-3.69l-3.52-2.09a2.26,2.26,0,0,0-3.34,2.5l.17.68a33.24,33.24,0,0,0,24.24,24l14.07,3.47"/><path class="cls-89" d="M1301.61,342.52c-9.53,1.32-26.87,7.26-31.91,12.72-4.83,5.23-15.76-1.6-16.67-2.18a33.2,33.2,0,0,0,14.32,7.62l14.07,3.47,27.23-20A12.27,12.27,0,0,0,1301.61,342.52Z"/><path class="cls-69" d="M1411.54,245.81l11.35,5.12a28.63,28.63,0,0,0,7,2.14l9.64,1.61a32.94,32.94,0,0,1,9.09,2.92l19.26,9.46a6.46,6.46,0,0,1,3,8.58l-1.19,2.5a16.69,16.69,0,0,1-13.07,9.4l-9.21,1.12a9.08,9.08,0,0,0-7.82,7.25L1436,314.4a106.37,106.37,0,0,0-1.25,33.45l1.06,8.79a14.23,14.23,0,0,0,15.84,12.42l19.26-2.33a10.31,10.31,0,0,1,8.91,3.35h0a15.24,15.24,0,0,1,2.27,17L1469,413a19.7,19.7,0,0,1-7.7,8.18l-16.71,9.71a3.3,3.3,0,0,1-4.93-2.39l-.5-3.47a4.68,4.68,0,0,1,2.36-4.75l9.28-5.14a10.9,10.9,0,0,0,5.5-8l1.59-10.8a3,3,0,0,0-3.6-3.44l-33,6.42A304.85,304.85,0,0,1,1361,405l-26.46-.18a39.92,39.92,0,0,0-30.37,13.69h0a57.7,57.7,0,0,1-21,15.22l-33.42,14.15a34.19,34.19,0,0,0-18.8,19.8l-6.18,17a23.17,23.17,0,0,1-8,10.72l-13.67,10.08a4.36,4.36,0,0,1-6.92-3l-.5-4.14a13.71,13.71,0,0,1,6.39-13.3l8.46-5.24a10.85,10.85,0,0,0,4.9-7l3.55-16.71a31.42,31.42,0,0,1,8.64-15.82l26.14-25.85A21.3,21.3,0,0,0,1260,399l-.07-5A43.07,43.07,0,0,1,1271.65,364l3.14-3.34a64.1,64.1,0,0,1,47.08-20.19l22.06.13A39.21,39.21,0,0,0,1378.68,320l31.09-57.73-2.27,0a13.5,13.5,0,0,1-11.27-6.35l-5.38-8.63a2.81,2.81,0,0,1,2-4.27h0A35.12,35.12,0,0,1,1411.54,245.81Z"/><g class="cls-71"><path class="cls-90" d="M1343.93,340.6l-19.34-.11c7.57.87,17.74,4.34,40.13,12.45,41.25,14.93,55.23-2.63,55.23-2.63l-47.7-21.55A39.21,39.21,0,0,1,1343.93,340.6Z"/><path class="cls-91" d="M1305.31,342.55c2.76-.56,5.1-1.06,7.23-1.44A64.12,64.12,0,0,0,1305.31,342.55Z"/></g><path class="cls-92" d="M1435.77,356.64l-1.06-8.79A106.38,106.38,0,0,1,1436,314.4l3.66-18.5a9.08,9.08,0,0,1,7.82-7.25l1.72-.21s-25.25-.61-26.64,21.13,1.87,54.76-8.65,57.19c-9.47,2.18-6.32,11.34,4,8.48a104.29,104.29,0,0,1,11.63-2.68l22.15-3.51A14.23,14.23,0,0,1,1435.77,356.64Z"/><path class="cls-93" d="M1409.77,262.25l-14.07,26.13h0c8.38-15.56,24.32-12.57,26.37-20.31S1409.77,262.25,1409.77,262.25Z"/><circle class="cls-32" cx="1438.85" cy="264.22" r="1.99" transform="translate(1164.38 1701.14) rotate(-89.59)"/><g class="cls-71"><path class="cls-94" d="M1339.78,404.87c-8.18-.3-19.66-1.26-28.65-4.15-15.71-5-20.11,14.67-25.18,25.14s-31.14,19.33-31.14,19.33l.68.27,27.66-11.71a57.7,57.7,0,0,0,21-15.22h0a39.92,39.92,0,0,1,30.37-13.69Z"/></g><path class="cls-34" d="M1390.76,297.55s-1.32,6.19,8.9,8.56,36.12,9.18,37.74,1c0,0,5.28-.25,4,4.78s-2.9,18.8-1.14,24.06-14.6,22.62-50.21,11.07-23.17-17.84-17.28-25.09,13.59-32.79,19.74-27.67Z"/><path class="cls-95" d="M1399.66,306.11c-10.22-2.37-8.9-8.56-8.9-8.56l1.77-3.29c-6.15-5.12-13.85,20.43-19.74,27.67s-18.33,13.54,17.28,25.09c11.4,3.7,20.81,4.42,28.3,3.54l4.39-.74c.5-.11,1-.22,1.46-.35,5-1.67,7.81-8-3.75-10.73-12.53-3-6.34-9.51,7.68-12.78s9.24-18.86,9.24-18.86C1435.79,315.29,1409.89,308.48,1399.66,306.11Z"/><path class="cls-96" d="M480.85,343.1a85.36,85.36,0,0,1,6.95-23.26,68.65,68.65,0,0,1,6.1-10.61,49,49,0,0,1,8.35-9.07c.82-.63,1.58-1.35,2.45-1.91l2.61-1.71a39.44,39.44,0,0,1,5.63-2.7,42.07,42.07,0,0,1,6-1.83c1-.19,2.06-.32,3.09-.48l1.55-.22,1.56-.06c8.35-.45,16.62,1.43,24.29,4.34a124.94,124.94,0,0,1,21.83,11.27q10.24,6.57,20.29,13.42c13.39,9.14,26.55,18.57,39.85,27.74s26.69,18.19,40.57,26.38c6.94,4.08,14,8,21.17,11.61,1.78.94,3.62,1.76,5.42,2.64l2.72,1.3,2.75,1.24c1.84.81,3.66,1.67,5.51,2.45l5.58,2.3a232.76,232.76,0,0,0,46.34,13.22c15.86,2.93,32.07,3.74,48.24,3.49a228.63,228.63,0,0,1-24.29.5c-4.06,0-8.1-.42-12.15-.67-2-.16-4-.42-6.06-.63l-3-.33c-1-.12-2-.29-3-.43l-6-.92-6-1.15c-2-.35-4-.84-6-1.3s-4-.87-5.93-1.44l-5.89-1.61c-2-.57-3.89-1.21-5.83-1.81l-2.91-.93-2.88-1c-1.91-.69-3.85-1.32-5.75-2.07A299.61,299.61,0,0,1,670,377.66C656,369.5,642.44,360.5,629.1,351.3l-39.72-27.91q-9.95-6.92-20-13.6a129.39,129.39,0,0,0-21.06-11.3,57.86,57.86,0,0,0-23-4.64l-1.47,0-1.46.17c-1,.13-1.95.22-2.92.37a39.72,39.72,0,0,0-5.65,1.57,37.25,37.25,0,0,0-5.37,2.4l-2.51,1.55c-.84.51-1.59,1.17-2.39,1.74a47.29,47.29,0,0,0-8.36,8.44,67.37,67.37,0,0,0-6.36,10.18,92.63,92.63,0,0,0-7.89,22.8Z"/><path class="cls-96" d="M877.54,415.3c5.06-.11,10.1-.58,15.12-1.14s10-1.3,15-2.2A275.64,275.64,0,0,0,965.46,395,261.07,261.07,0,0,0,992.6,382a256.91,256.91,0,0,0,25.5-16c8.3-5.81,16.69-11.67,25.75-16.44l3.41-1.77,3.49-1.63c1.15-.57,2.37-1,3.56-1.5s2.42-.9,3.65-1.3a41.52,41.52,0,0,1,7.63-1.74,18,18,0,0,1,8,.81,11.14,11.14,0,0,1,5.93,5.42,20.44,20.44,0,0,1,1.95,7.56,53.87,53.87,0,0,1,0,7.65c-.13,2.54-.47,5-.4,7.58-.27-2.52-.13-5.07-.2-7.59a53.85,53.85,0,0,0-.52-7.51,19.93,19.93,0,0,0-2.21-7,9.35,9.35,0,0,0-5.24-4.31,16.07,16.07,0,0,0-7-.38,39.15,39.15,0,0,0-7.07,1.94,88.14,88.14,0,0,0-13.44,6.46,270.35,270.35,0,0,0-25,16.78,250.44,250.44,0,0,1-25.78,16.45,253.47,253.47,0,0,1-27.64,13.07,246.38,246.38,0,0,1-29,9.55Q930.48,410,923,411.47c-5,.94-10,1.77-15.06,2.42s-10.1,1.11-15.18,1.37A137.69,137.69,0,0,1,877.54,415.3Z"/><path class="cls-96" d="M1162.29,404.94a15.59,15.59,0,0,0,4.47,6.62,11.73,11.73,0,0,0,3.4,2,11.08,11.08,0,0,0,3.84.61,18.74,18.74,0,0,0,7.57-2l1.77-.91c.59-.31,1.14-.69,1.71-1,1.15-.66,2.21-1.49,3.29-2.27a89.16,89.16,0,0,0,11.82-10.91c3.69-3.93,7.11-8.11,10.47-12.34,6.61-8.55,12.84-17.42,18.75-26.51a159.13,159.13,0,0,1,20.78-25.61,119.9,119.9,0,0,1,26.52-19.75,111.61,111.61,0,0,1,15.22-6.59c2.59-1,5.27-1.68,7.93-2.42,1.32-.4,2.69-.61,4-.92s2.69-.61,4.06-.8l4.09-.64c1.37-.18,2.74-.3,4.11-.45s2.74-.25,4.12-.31,2.75-.19,4.13-.16a113.07,113.07,0,0,1,16.44.92,121.77,121.77,0,0,1,16.08,3.26,89.7,89.7,0,0,1,15.37,5.57,116.87,116.87,0,0,0-31.66-6.88,114.29,114.29,0,0,0-32.1,1.76,107.09,107.09,0,0,0-30,11A118,118,0,0,0,1253,335.46a159,159,0,0,0-20.43,24.84c-6.13,9-12.49,17.94-19.47,26.37-3.54,4.18-7.09,8.35-11,12.2a89.39,89.39,0,0,1-12.57,10.69c-1.17.75-2.3,1.54-3.55,2.17-.62.32-1.2.69-1.84,1l-1.91.85a20,20,0,0,1-8.2,1.64,12,12,0,0,1-4.12-.89,12.2,12.2,0,0,1-3.5-2.3A15.89,15.89,0,0,1,1162.29,404.94Z"/><path class="cls-97" d="M417.95,500.5c-12.33-27.81-35.47-27.12-34.71-40.73C384.34,440,404,443,404,443h0l-8-1.78a58.48,58.48,0,0,0-16.2-.18l-43.56,5.59a11.15,11.15,0,0,0-7.95,17.09l35,54.36a68.24,68.24,0,0,0,66,30.71l72-9.24C458.66,545,430.28,528.32,417.95,500.5Z"/><path class="cls-98" d="M609.87,496.21a4.53,4.53,0,0,0-5.76,2.8L596,522.47c-7,20.25-25.72,35.15-47.69,38h0a8,8,0,0,1-8.23-4.45l-5.35-11a4.53,4.53,0,0,0-8.14,4l1.63,3.36a8,8,0,0,1-6.2,11.47L458,572a8,8,0,0,1-8.88-9.55l.74-3.66a4.53,4.53,0,1,0-8.87-1.79l-2.42,12a8,8,0,0,1-6.85,6.37l-1.34.17c-22.45,2.87-43.76-8.47-53-28.21l-1.63-3.48a4.53,4.53,0,0,0-8.2,3.85l1.63,3.48c10.94,23.31,36,36.71,62.36,33.34l10.25-1.31h0l98.75-12.61h0l8.92-1.14c25.35-3.24,47-20.5,55.1-44L612.67,502A4.53,4.53,0,0,0,609.87,496.21Z"/></g></g></svg>